# xmcd
#
# Track frame offsets:
#	150
#	13608
#	27068
#	46055
#	60690
#	72212
#	85466
#	100262
#	113924
#	123483
#	135571
#	145959
#	158091
#	176245
#	190720
#	200706
#	215339
#	230004
#	246250
#
# Disc length: 3482 seconds
#
# Revision: 0
# Processed by: cddbd v1.4PL0 Copyright (c) Steve Scherf et al.
# Submitted via: EasyCDDAExtractor 4.6.0.1
#
DISCID=110d9813
DTITLE=Darrell McCall - All we could find - Disk I
DYEAR=1900
DGENRE=Counntry
TTITLE0=Dreams Of A Dreamer
TTITLE1=A Way To Survive
TTITLE2=After Texas
TTITLE3=Afternoon Rendez-Vous
TTITLE4=Broken Promise Land
TTITLE5=Country Girl
TTITLE6=Eleven Roses
TTITLE7=Farm Boy Blues
TTITLE8=Fiddlin' Of Jacques Pierre Bardeaux
TTITLE9=Hide And Go Cheat
TTITLE10=I Can't See Texas From Here
TTITLE11=I Come Home To Face The Music
TTITLE12=Guess I'm Gettin' Tired Of Lovin' You
TTITLE13=If It Ain't Broke Don't Fix It
TTITLE14=It's Been So Long Darlin'
TTITLE15=I've Just Lost My Favorite Girl
TTITLE16=Jeannie In A Bottle
TTITLE17=Just Ask Me For A Lifetime
TTITLE18=Lily Dale
EXTD=
EXTT0=
EXTT1=
EXTT2=
EXTT3=
EXTT4=
EXTT5=
EXTT6=
EXTT7=
EXTT8=
EXTT9=
EXTT10=
EXTT11=
EXTT12=
EXTT13=
EXTT14=
EXTT15=
EXTT16=
EXTT17=
EXTT18=
PLAYORDER=
